<svg width="16" height="16" viewBox="0 0 16 16" fill="none" xmlns="http://www.w3.org/2000/svg">
<path d="M10.8471 0.769421C11.0877 0.188196 11.7221 -0.121165 12.3283 0.0444527L15.0782 0.79442C15.6219 0.944413 16 1.43814 16 2.00062C16 9.73153 9.73153 16 2.00062 16C1.43814 16 0.944413 15.6219 0.79442 15.0782L0.0444527 12.3283C-0.121165 11.7221 0.188196 11.0877 0.769421 10.8471L3.76929 9.59716C4.27864 9.38467 4.86924 9.53154 5.2161 9.95964L6.47854 11.5002C8.67845 10.4596 10.4596 8.67845 11.5002 6.47854L9.95964 5.21923C9.53154 4.86924 9.38467 4.28177 9.59716 3.77241L10.8471 0.772546V0.769421Z" fill="#74777C"/>
</svg>
