<svg width="18" height="18" viewBox="0 0 18 18" fill="none" xmlns="http://www.w3.org/2000/svg">
<path d="M13.6783 4.66823L9.81818 8.49533L9.81818 16.9065H10.7413L10.7413 18L0 18L2.38164e-06 7.14953L1.04895 7.14953V8.15888H8.68532L12.9231 3.91122L11.1189 2.10281L15.4406 2.10281L15.4406 6.43458L13.6783 4.66823ZM18 1.85047L16.9091 1.85047V1.0514L16.1119 1.0514V2.11282e-06L18 2.36042e-06V1.85047ZM16.9091 16.9065V16.1075H18V18H16.1119V16.9065H16.9091ZM18 14.9299V13.5841H16.9091V14.9299H18ZM18 12.785V11.4393L16.9091 11.4393V12.785H18ZM18 10.6402V9.2944H16.9091V10.6402H18ZM18 8.49533V7.14954L16.9091 7.14954V8.49533H18ZM18 6.35047V5.00468H16.9091L16.9091 6.35047H18ZM1.04895 6.35047L1.04895 5.00467H2.47539e-06L2.41657e-06 6.35047H1.04895ZM18 4.16355V2.81776L16.9091 2.81776V4.16355H18ZM1.04895 4.16355L1.04895 2.81776H2.57099e-06L2.51216e-06 4.16355L1.04895 4.16355ZM15.1469 18V16.9065H13.8042V18H15.1469ZM15.1469 1.0514L15.1469 1.98627e-06L13.8042 1.8102e-06V1.0514L15.1469 1.0514ZM12.965 18V16.9065H11.6224L11.6224 18H12.965ZM12.965 1.0514V1.70016e-06L11.6224 1.52409e-06V1.0514L12.965 1.0514ZM10.7413 1.0514V1.40855e-06L9.3986 1.23248e-06V1.0514L10.7413 1.0514ZM8.55944 1.0514V1.12244e-06L7.21679 9.46367e-07V1.0514L8.55944 1.0514ZM6.37763 1.0514V8.36324e-07L5.03497 6.60256e-07V1.0514L6.37763 1.0514ZM4.15385 1.0514L4.15385 5.44711e-07L2.81119 3.68643e-07V1.0514L4.15385 1.0514ZM1.04895 1.0514V1.85047L2.61327e-06 1.85047L2.69415e-06 0L1.88811 2.47596e-07L1.88811 1.0514L1.04895 1.0514Z" fill="#ADB2B6"/>
</svg>
