<svg width="24" height="18" viewBox="0 0 24 18" fill="none" xmlns="http://www.w3.org/2000/svg">
<path d="M6.94215 17.3058H5.75207V18H6.94215L6.94215 17.3058ZM17.8017 17.3058H16.6116V18H17.8017V17.3058ZM0.743802 7.68595L19.8843 7.68595V1.73554C19.8843 1.23967 19.3884 0.842975 18.7934 0.842975C18.2975 0.842975 17.8512 1.1405 17.7521 1.53719L16.8099 1.38843C17.0579 0.595041 17.8512 -8.23652e-08 18.7934 0C19.9339 9.97053e-08 20.8264 0.793389 20.8264 1.78512V7.68595H22.6612C23.1074 7.68595 23.405 8.03306 23.405 8.47934V9.22314C23.405 9.66942 23.1074 10.0165 22.6612 10.0165H22.1653C22.1157 10.314 22.0661 10.6612 21.9669 11.0579L21.4215 13.6364C20.6777 16.4132 19.1405 16.8595 17.3058 16.9091H6.14876C5.90083 16.9091 5.65289 16.9091 5.40496 16.8595C4.21488 16.7107 2.67769 16.0165 1.93388 13.8347L1.09091 10.0165H0.694215C0.297521 9.96694 -3.90151e-08 9.66942 0 9.22314L6.50251e-08 8.47934C1.0404e-07 8.03306 0.297521 7.68595 0.743802 7.68595ZM18.8926 3.81818C18.843 3.91736 18.843 3.96694 18.7934 4.06612L14.6281 3.22314V2.97521C14.7769 2.28099 15.1736 1.73554 15.719 1.43802L18.4463 1.98347C18.843 2.47934 18.9917 3.12397 18.8926 3.81818Z" fill="#ADB2B6"/>
</svg>
