<svg width="29" height="18" viewBox="0 0 29 18" fill="none" xmlns="http://www.w3.org/2000/svg">
<path d="M0.547297 5.41216H2.00676C2.37162 5.41216 2.61486 5.6554 2.61486 6.02027L3.89189 10.7027L23.9595 10.7027L25.9054 0.608108C25.9054 0.243243 26.1486 -2.65812e-08 26.4527 0L27.9122 1.2759e-07C28.2162 1.54171e-07 28.4595 0.243243 28.4595 0.608108L26.5135 17.3919C26.5135 17.7568 26.2703 18 25.9662 18H24.5068C24.2027 18 23.9595 17.7568 23.9595 17.3919V13.9865L3.89189 13.9865L3.89189 17.3919C3.89189 17.7568 3.64865 18 3.34459 18H1.88513C1.58108 18 1.27703 17.7568 1.27703 17.3919L0 6.02027C3.18975e-08 5.6554 0.243243 5.41216 0.547297 5.41216ZM17.3919 10.0946L4.43919 10.0946C4.07432 10.0946 3.83108 9.79054 3.83108 9.36486V8.33108C3.83108 7.9054 4.07432 7.60135 4.43919 7.60135L17.3919 7.60135C17.6959 7.60135 18 7.9054 18 8.33108V9.36486C18 9.79054 17.7568 10.0946 17.3919 10.0946ZM20.9797 9.85135C20.4324 10.3986 19.4595 10.277 18.8514 9.5473C18.2432 8.81757 18.1824 7.78378 18.7297 7.23649L21.6486 4.37838C22.2568 3.83108 23.1689 4.01351 23.8378 4.68243C24.4459 5.41216 24.5068 6.44595 23.8986 6.99324L20.9797 9.85135Z" fill="#ADB2B6"/>
</svg>
