<svg width="40" height="33" viewBox="0 0 40 33" fill="none" xmlns="http://www.w3.org/2000/svg">
<path d="M40 4.51012L40 32.9858H33.0089V4.51012L36.4602 0L40 4.51012ZM29.292 4.51012V7.16313H31.3274V11.7617H29.292V24.1424H31.3274L31.3274 28.6525H29.292V32.9858H22.3009L22.3009 4.51012L25.6637 9.43857e-07L29.292 4.51012ZM18.1416 4.51012L18.1416 7.16313H20.354V11.7617H18.1416V24.1424L20.354 24.1424V28.6525L18.1416 28.6525V32.9858H11.1504L11.1504 4.51012L14.6018 1.91092e-06L18.1416 4.51012ZM3.45133 2.88573e-06L6.99115 4.51012L6.99115 7.16314H9.9115V11.7617H6.99115L6.99115 24.1424H9.91151L9.91151 28.6525H6.99115V32.9858H2.48942e-06L0 4.51012L3.45133 2.88573e-06Z" fill="#DF434A"/>
</svg>
