<svg width="40" height="35" viewBox="0 0 40 35" fill="none" xmlns="http://www.w3.org/2000/svg">
<path d="M26.3869 15.6643C23.1235 15.6643 20.6061 12.2145 20.6061 7.83217C20.6061 3.54312 23.1235 7.90677e-07 26.3869 1.07597e-06C29.5571 1.35312e-06 32.1678 3.54313 32.1678 7.83217C32.1678 12.2145 29.5571 15.6643 26.3869 15.6643ZM9.13753 23.31C9.32401 23.1235 9.41725 23.0303 9.51049 22.8438C10.7226 20.0466 14.359 16.7832 20.0466 16.69H20.3263C25.9207 16.69 29.4639 19.7669 30.8625 22.7506C30.9557 22.8438 31.0489 22.9371 31.1422 23.1235C31.3287 23.2168 31.4219 23.4033 31.5152 23.5897C32.7273 25.4545 33.38 27.5991 33.2867 29.5571C33.1935 31.6084 32.2611 33.2867 30.8625 34.2191C30.2098 34.5921 29.5571 34.7786 28.9044 34.7786C27.5991 34.7786 26.2937 34.0326 24.8019 33.1002C23.8695 32.5408 22.9371 31.8881 21.8182 31.5152C21.7249 31.4219 21.2587 31.3287 20.4196 31.3287C19.4872 31.3287 18.8345 31.4219 18.648 31.5152C17.6224 31.9813 16.69 32.5408 15.8508 33.1935C14.4522 34.0326 13.1469 34.965 11.7483 34.965C11.1888 34.965 10.6294 34.7786 10.0699 34.4988C7.08625 32.7273 6.43357 27.972 8.76457 23.8695C8.85781 23.683 9.04429 23.4965 9.13753 23.31ZM14.0793 15.6643C10.8159 15.6643 8.20513 12.2145 8.20513 7.83217C8.20513 3.54312 10.8159 -2.85296e-07 14.0793 0C17.2494 2.77144e-07 19.8601 3.54312 19.8601 7.83217C19.8601 12.2145 17.2494 15.6643 14.0793 15.6643ZM4.56877 11.655C7.08625 11.655 9.04429 14.359 9.04429 17.7156C9.04429 21.1655 7.08625 23.8695 4.56876 23.8695C1.95804 23.8695 -3.01598e-07 21.1655 0 17.7156C2.93447e-07 14.359 1.95804 11.655 4.56877 11.655ZM30.8625 17.7156C30.8625 14.359 32.8205 11.655 35.4312 11.655C37.9487 11.655 40 14.359 40 17.7156C40 21.1655 37.9487 23.8695 35.4312 23.8695C32.8205 23.8695 30.8625 21.1655 30.8625 17.7156Z" fill="#DF434A"/>
</svg>
