<svg width="40" height="34" viewBox="0 0 40 34" fill="none" xmlns="http://www.w3.org/2000/svg">
<path d="M26.0486 0.529801C26.4018 0.1766 26.8433 0 27.2848 0C29.9338 0 30.8168 3.09051 30.9051 4.94481C30.9051 5.56291 30.4636 6.18102 29.7572 6.18102C29.0508 6.26932 28.521 5.73951 28.521 5.03311C28.4327 4.41501 28.1678 3.09051 27.638 2.56071C27.1965 4.06181 26.9316 8.30022 26.9316 13.1567C26.9316 13.3333 27.0199 13.4216 27.0199 13.5982C27.0199 13.7748 26.9316 13.8631 26.9316 13.9514V17.5717C26.1369 17.7483 25.2539 17.5717 24.5475 17.2185C24.5475 16.4238 24.4592 15.6291 24.4592 14.7461H16.5121C16.5121 15.4525 16.6004 16.1589 16.6004 16.8653C16.3355 16.9536 16.1589 17.0419 15.894 17.2185C15.3642 17.4834 14.7461 17.66 14.128 17.66C14.0397 14.8344 14.0397 11.3907 14.2163 8.30022C14.128 8.12362 14.128 8.03532 14.128 7.85872C14.128 7.68212 14.128 7.50552 14.2163 7.32892C14.4812 4.06181 14.8344 1.4128 15.7174 0.529801C15.9823 0.1766 16.4238 0 16.8653 0C19.5143 0 20.3974 3.09051 20.4857 4.94481C20.574 5.56291 20.0441 6.18102 19.3377 6.18102C18.7196 6.26932 18.1015 5.73951 18.1015 5.03311C18.1015 4.41501 17.7483 3.09051 17.2185 2.56071C17.0419 3.35541 16.8653 4.76821 16.6887 6.62252H24.6358C24.9007 3.70861 25.3422 1.3245 26.0486 0.529801ZM16.6004 9.00662C16.6004 10.0662 16.5121 11.2141 16.5121 12.362H24.4592C24.4592 11.3024 24.4592 10.1545 24.5475 9.00662H16.6004ZM35.6733 20.6623C36.3797 21.2804 37.351 21.5453 38.234 21.5453C39.2053 21.5453 40 22.6932 40 24.0177C40 25.3422 39.2053 26.4018 38.234 26.4018C36.7329 26.4018 35.2318 25.872 33.9073 24.8124C32.6711 23.8411 31.6998 23.8411 30.5519 24.8124C27.9029 26.9316 24.4592 26.9316 21.8985 24.8124C20.6623 23.8411 19.691 23.8411 18.543 24.8124C15.8057 26.9316 12.2737 26.9316 9.62472 24.6358C8.38852 23.5762 7.59382 23.5762 6.26932 24.6358C4.94481 25.7837 3.35541 26.4018 1.766 26.4018C0.794702 26.4018 0 25.3422 0 24.0177C0 22.6932 0.794702 21.5453 1.766 21.5453C2.73731 21.5453 3.70861 21.1921 4.50331 20.4857C6.88742 18.4547 9.09492 18.4547 11.479 20.4857C13.0684 21.8985 15.1876 21.8985 16.777 20.6623C19.0728 18.8079 21.3687 18.8079 23.5762 20.6623C25.1656 21.8985 27.1965 21.8985 28.7859 20.6623C31.0817 18.8079 33.3775 18.8079 35.6733 20.6623ZM35.6733 27.9912C36.3797 28.6093 37.351 28.9625 38.234 28.9625C39.2053 28.9625 40 30.0221 40 31.3466C40 32.7594 39.2053 33.819 38.234 33.819C36.7329 33.819 35.2318 33.2892 33.9073 32.2296C32.6711 31.2583 31.6998 31.2583 30.5519 32.2296C27.9029 34.2605 24.4592 34.2605 21.8985 32.2296C20.6623 31.2583 19.691 31.2583 18.543 32.2296C15.8057 34.3488 12.2737 34.2605 9.62472 32.053C8.38852 30.9934 7.59382 30.9934 6.26932 32.053C4.94481 33.2009 3.35541 33.819 1.766 33.819C0.794702 33.819 0 32.7594 0 31.3466C0 30.0221 0.794702 28.9625 1.766 28.9625C2.73731 28.9625 3.70861 28.6093 4.50331 27.9029C6.88742 25.872 9.09492 25.872 11.479 27.9029C13.0684 29.2274 15.1876 29.3157 16.777 27.9912C19.0728 26.2252 21.3687 26.2252 23.5762 27.9912C25.1656 29.2274 27.1965 29.2274 28.7859 27.9912C31.0817 26.2252 33.3775 26.2252 35.6733 27.9912Z" fill="#DF434A"/>
</svg>
