<svg width="30" height="28" viewBox="0 0 30 28" fill="none" xmlns="http://www.w3.org/2000/svg">
<path d="M26.25 0.875C28.3184 0.875 30 2.55664 30 4.625V23.375C30 25.4434 28.3184 27.125 26.25 27.125H3.75C1.68164 27.125 0 25.4434 0 23.375V4.625C0 2.55664 1.68164 0.875 3.75 0.875H26.25ZM21.0938 4.625V8.375H26.25V4.625H21.0938ZM17.8125 4.625H12.6562V8.375H17.8125V4.625ZM3.75 4.625V8.375H8.90625V4.625H3.75ZM26.25 12.125H21.0938V15.875H26.25V12.125ZM12.6562 12.125V15.875H17.8125V12.125H12.6562ZM8.90625 12.125H3.75V15.875H8.90625V12.125ZM21.0938 19.625V23.375H26.25V19.625H21.0938ZM17.8125 19.625H12.6562V23.375H17.8125V19.625ZM3.75 19.625V23.375H8.90625V19.625H3.75Z" fill="#ADB2B6"/>
</svg>
