<svg width="30" height="28" viewBox="0 0 30 28" fill="none" xmlns="http://www.w3.org/2000/svg">
<path d="M0 4.625C0 2.55664 1.68164 0.875 3.75 0.875H26.25C28.3184 0.875 30 2.55664 30 4.625V23.375C30 25.4434 28.3184 27.125 26.25 27.125H3.75C1.68164 27.125 0 25.4434 0 23.375V4.625ZM3.75 4.625V8.375H7.5V4.625H3.75ZM26.25 4.625H11.25V8.375H26.25V4.625ZM3.75 12.125V15.875H7.5V12.125H3.75ZM26.25 12.125H11.25V15.875H26.25V12.125ZM3.75 19.625V23.375H7.5V19.625H3.75ZM26.25 19.625H11.25V23.375H26.25V19.625Z" fill="#ADB2B6"/>
</svg>
