<svg width="17" height="16" viewBox="0 0 17 16" fill="none" xmlns="http://www.w3.org/2000/svg">
<path d="M7.21663 0L16.5536 8.16265e-07C16.814 8.39029e-07 17 0.185997 17 0.44639L17 15.5492C17 15.8096 16.814 15.9956 16.5536 15.9956L6.77024 15.9956L6.77024 0.446389C6.77024 0.185996 6.95624 -2.27644e-08 7.21663 0ZM12.1641 13.1685L15.8468 13.1685V11.6433H12.1641V13.1685ZM12.1641 10.7133H15.8468V9.18818L12.1641 9.18818V10.7133ZM12.1641 8.25821H15.8468V6.73304H12.1641L12.1641 8.25821ZM12.1641 5.80306L15.8468 5.80306L15.8468 4.2779L12.1641 4.2779V5.80306ZM12.1641 3.34792L15.8468 3.34792V1.82276L12.1641 1.82276V3.34792ZM7.92341 13.1685H11.6061V11.6433L7.92341 11.6433V13.1685ZM7.92341 10.7133H11.6061V9.18818H7.92341L7.92341 10.7133ZM7.92341 8.25821L11.6061 8.25821V6.73304H7.92341V8.25821ZM7.92341 5.80306L11.6061 5.80306V4.2779L7.92341 4.2779L7.92341 5.80306ZM7.92341 3.34792L11.6061 3.34792V1.82276L7.92341 1.82276V3.34792ZM0.44639 4.91028L6.32385 4.91028L6.32385 15.9956L0.446389 15.9956C0.185996 15.9956 -2.27644e-08 15.8096 0 15.5492L8.91062e-07 5.35667C9.13826e-07 5.09628 0.185997 4.91028 0.44639 4.91028ZM1.00438 14.3589H5.28228L5.28228 12.8337L1.00438 12.8337L1.00438 14.3589ZM1.00438 12.1269H5.28228V10.6018H1.00438L1.00438 12.1269ZM1.00438 9.89497H5.28228V8.3326H1.00438L1.00438 9.89497ZM1.00438 7.62582H5.28228V6.10066L1.00438 6.10066L1.00438 7.62582Z" fill="white" fill-opacity="0.6"/>
</svg>
