<svg width="19" height="18" viewBox="0 0 23 18" fill="none" xmlns="http://www.w3.org/2000/svg">
<path d="M4.77479 0.363391C4.77479 0.169582 4.92015 0.0242256 5.11396 0.0242256L7.1974 0.0242258C7.39121 0.0242258 7.53657 0.169582 7.53657 0.363391V1.86541L4.77479 4.14266L4.77479 0.363391ZM3.22432 6.22611L6.80979 3.22207L8.45716 1.86541L10.153 0.460296L10.2499 0.363392C10.8313 -0.121131 11.7519 -0.12113 12.3818 0.363392L22.4114 8.74563C22.6052 8.89098 22.6537 9.23015 22.5083 9.37551L21.6362 10.4415C21.5393 10.4899 21.4424 10.5868 21.3455 10.5868C21.2001 10.5868 21.1032 10.5384 21.0063 10.4899L11.3158 2.39839L1.6254 10.4899C1.52849 10.5384 1.43159 10.5868 1.28623 10.5868C1.14088 10.5868 1.04397 10.4899 0.947066 10.4415L0.123379 9.3755C-0.0704303 9.23015 -0.021978 8.89098 0.171831 8.74562L3.22432 6.22611ZM11.3158 3.65814L19.3589 10.2961V17.1279C19.3589 17.6124 18.9713 18 18.4868 18H13.1086L13.1086 12.6218H9.52311L9.52311 18H4.14491C3.61194 18 3.22432 17.6124 3.22432 17.1279L3.22432 10.2961L11.3158 3.65814Z" fill="white" fill-opacity="0.6"/>
</svg>
